<?xml version="1.0" encoding="UTF-8"?>
<svg width="577px" height="373px" viewBox="0 0 577 373" version="1.1" xmlns="http://www.w3.org/2000/svg" xmlns:xlink="http://www.w3.org/1999/xlink">
    <title>Group 8</title>
    <defs>
        <linearGradient x1="2.12424006%" y1="57.9227113%" x2="71.4927439%" y2="47.1079689%" id="linearGradient-1">
            <stop stop-color="#FCDF1E" offset="0%"></stop>
            <stop stop-color="#F4B829" offset="100%"></stop>
        </linearGradient>
        <path d="M68.2,278 L68.2,252.56 C70.0666667,249.093333 72.6266667,247.36 75.88,247.36 C76.8133333,247.36 77.5866667,247.42 78.2,247.54 C78.8133333,247.66 79.3466667,247.72 79.8,247.72 C80.3333333,247.72 80.76,247.606667 81.08,247.38 C81.4,247.153333 81.6133333,246.76 81.72,246.2 L81.72,246.2 L83.32,237.08 C82.1733333,236.173333 80.6533333,235.72 78.76,235.72 C76.52,235.72 74.4533333,236.4 72.56,237.76 C70.6666667,239.12 68.96,240.973333 67.44,243.32 L67.44,243.32 L66.76,239.44 C66.6533333,238.906667 66.5266667,238.453333 66.38,238.08 C66.2333333,237.706667 66.02,237.406667 65.74,237.18 C65.46,236.953333 65.1133333,236.786667 64.7,236.68 C64.2866667,236.573333 63.7733333,236.52 63.16,236.52 L63.16,236.52 L55.8,236.52 L55.8,278 L68.2,278 Z M107.16,278.64 C108.573333,278.64 110.06,278.54 111.62,278.34 C113.18,278.14 114.74,277.78 116.3,277.26 C117.86,276.74 119.38,276.02 120.86,275.1 C122.34,274.18 123.72,272.986667 125,271.52 L125,271.52 L121.4,267.08 C120.893333,266.36 120.146667,266 119.16,266 C118.413333,266 117.7,266.173333 117.02,266.52 C116.34,266.866667 115.593333,267.253333 114.78,267.68 C113.966667,268.106667 113.04,268.493333 112,268.84 C110.96,269.186667 109.72,269.36 108.28,269.36 C105.586667,269.36 103.386667,268.58 101.68,267.02 C99.9733333,265.46 98.92,262.946667 98.52,259.48 L98.52,259.48 L122.44,259.48 C123,259.48 123.46,259.413333 123.82,259.28 C124.18,259.146667 124.466667,258.906667 124.68,258.56 C124.893333,258.213333 125.04,257.746667 125.12,257.16 C125.2,256.573333 125.24,255.813333 125.24,254.88 C125.24,251.893333 124.78,249.22 123.86,246.86 C122.94,244.5 121.66,242.506667 120.02,240.88 C118.38,239.253333 116.42,238.013333 114.14,237.16 C111.86,236.306667 109.346667,235.88 106.6,235.88 C103.426667,235.88 100.58,236.426667 98.06,237.52 C95.54,238.613333 93.3933333,240.093333 91.62,241.96 C89.8466667,243.826667 88.4866667,246 87.54,248.48 C86.5933333,250.96 86.12,253.586667 86.12,256.36 C86.12,260.04 86.6733333,263.266667 87.78,266.04 C88.8866667,268.813333 90.3933333,271.133333 92.3,273 C94.2066667,274.866667 96.4333333,276.273333 98.98,277.22 C101.526667,278.166667 104.253333,278.64 107.16,278.64 Z M114.12,252.28 L98.64,252.28 C99.0666667,249.746667 99.9466667,247.806667 101.28,246.46 C102.613333,245.113333 104.466667,244.44 106.84,244.44 C108.173333,244.44 109.306667,244.666667 110.24,245.12 C111.173333,245.573333 111.926667,246.166667 112.5,246.9 C113.073333,247.633333 113.486667,248.466667 113.74,249.4 C113.993333,250.333333 114.12,251.293333 114.12,252.28 L114.12,252.28 Z M142.84,278.64 C144.253333,278.64 145.54,278.526667 146.7,278.3 C147.86,278.073333 148.953333,277.726667 149.98,277.26 C151.006667,276.793333 152,276.226667 152.96,275.56 C153.92,274.893333 154.92,274.12 155.96,273.24 L155.96,273.24 L156.84,275.52 C157.24,276.533333 157.74,277.2 158.34,277.52 C158.94,277.84 159.826667,278 161,278 L161,278 L166.68,278 L166.68,252.08 C166.68,249.706667 166.306667,247.52 165.56,245.52 C164.813333,243.52 163.74,241.793333 162.34,240.34 C160.94,238.886667 159.233333,237.753333 157.22,236.94 C155.206667,236.126667 152.946667,235.72 150.44,235.72 C146.946667,235.72 143.673333,236.26 140.62,237.34 C137.566667,238.42 134.786667,240.066667 132.28,242.28 L132.28,242.28 L134.52,246.16 C134.866667,246.773333 135.34,247.286667 135.94,247.7 C136.54,248.113333 137.266667,248.32 138.12,248.32 C139.08,248.32 139.906667,248.16 140.6,247.84 C141.293333,247.52 142.006667,247.16 142.74,246.76 C143.473333,246.36 144.306667,246 145.24,245.68 C146.173333,245.36 147.373333,245.2 148.84,245.2 C150.68,245.2 152.1,245.74 153.1,246.82 C154.1,247.9 154.6,249.653333 154.6,252.08 L154.6,252.08 L154.6,253.84 C149.853333,253.946667 145.92,254.426667 142.8,255.28 C139.68,256.133333 137.2,257.193333 135.36,258.46 C133.52,259.726667 132.226667,261.133333 131.48,262.68 C130.733333,264.226667 130.36,265.733333 130.36,267.2 C130.36,269.066667 130.653333,270.713333 131.24,272.14 C131.826667,273.566667 132.66,274.76 133.74,275.72 C134.82,276.68 136.133333,277.406667 137.68,277.9 C139.226667,278.393333 140.946667,278.64 142.84,278.64 Z M146.76,270.44 C145.266667,270.44 144.133333,270.153333 143.36,269.58 C142.586667,269.006667 142.2,268.013333 142.2,266.6 C142.2,265.88 142.38,265.213333 142.74,264.6 C143.1,263.986667 143.746667,263.44 144.68,262.96 C145.613333,262.48 146.88,262.08 148.48,261.76 C150.08,261.44 152.12,261.226667 154.6,261.12 L154.6,261.12 L154.6,266.88 C153.373333,268.133333 152.16,269.04 150.96,269.6 C149.76,270.16 148.36,270.44 146.76,270.44 Z M188.28,278 L188.28,218.12 L175.88,218.12 L175.88,278 L188.28,278 Z M232.04,278.64 C233.453333,278.64 234.94,278.54 236.5,278.34 C238.06,278.14 239.62,277.78 241.18,277.26 C242.74,276.74 244.26,276.02 245.74,275.1 C247.22,274.18 248.6,272.986667 249.88,271.52 L249.88,271.52 L246.28,267.08 C245.773333,266.36 245.026667,266 244.04,266 C243.293333,266 242.58,266.173333 241.9,266.52 C241.22,266.866667 240.473333,267.253333 239.66,267.68 C238.846667,268.106667 237.92,268.493333 236.88,268.84 C235.84,269.186667 234.6,269.36 233.16,269.36 C230.466667,269.36 228.266667,268.58 226.56,267.02 C224.853333,265.46 223.8,262.946667 223.4,259.48 L223.4,259.48 L247.32,259.48 C247.88,259.48 248.34,259.413333 248.7,259.28 C249.06,259.146667 249.346667,258.906667 249.56,258.56 C249.773333,258.213333 249.92,257.746667 250,257.16 C250.08,256.573333 250.12,255.813333 250.12,254.88 C250.12,251.893333 249.66,249.22 248.74,246.86 C247.82,244.5 246.54,242.506667 244.9,240.88 C243.26,239.253333 241.3,238.013333 239.02,237.16 C236.74,236.306667 234.226667,235.88 231.48,235.88 C228.306667,235.88 225.46,236.426667 222.94,237.52 C220.42,238.613333 218.273333,240.093333 216.5,241.96 C214.726667,243.826667 213.366667,246 212.42,248.48 C211.473333,250.96 211,253.586667 211,256.36 C211,260.04 211.553333,263.266667 212.66,266.04 C213.766667,268.813333 215.273333,271.133333 217.18,273 C219.086667,274.866667 221.313333,276.273333 223.86,277.22 C226.406667,278.166667 229.133333,278.64 232.04,278.64 Z M239,252.28 L223.52,252.28 C223.946667,249.746667 224.826667,247.806667 226.16,246.46 C227.493333,245.113333 229.346667,244.44 231.72,244.44 C233.053333,244.44 234.186667,244.666667 235.12,245.12 C236.053333,245.573333 236.806667,246.166667 237.38,246.9 C237.953333,247.633333 238.366667,248.466667 238.62,249.4 C238.873333,250.333333 239,251.293333 239,252.28 L239,252.28 Z M268.2,278.64 C271.026667,278.64 273.526667,278.293333 275.7,277.6 C277.873333,276.906667 279.7,275.933333 281.18,274.68 C282.66,273.426667 283.773333,271.933333 284.52,270.2 C285.266667,268.466667 285.64,266.573333 285.64,264.52 C285.64,262.84 285.366667,261.4 284.82,260.2 C284.273333,259 283.546667,257.98 282.64,257.14 C281.733333,256.3 280.706667,255.593333 279.56,255.02 C278.413333,254.446667 277.24,253.946667 276.04,253.52 C274.84,253.093333 273.666667,252.706667 272.52,252.36 C271.373333,252.013333 270.346667,251.646667 269.44,251.26 C268.533333,250.873333 267.806667,250.426667 267.26,249.92 C266.713333,249.413333 266.44,248.773333 266.44,248 C266.44,246.933333 266.86,246.1 267.7,245.5 C268.54,244.9 269.746667,244.6 271.32,244.6 C272.413333,244.6 273.386667,244.726667 274.24,244.98 C275.093333,245.233333 275.86,245.506667 276.54,245.8 C277.22,246.093333 277.853333,246.366667 278.44,246.62 C279.026667,246.873333 279.613333,247 280.2,247 C280.76,247 281.22,246.893333 281.58,246.68 C281.94,246.466667 282.28,246.106667 282.6,245.6 L282.6,245.6 L285.4,241.24 C284.626667,240.466667 283.733333,239.753333 282.72,239.1 C281.706667,238.446667 280.586667,237.88 279.36,237.4 C278.133333,236.92 276.82,236.546667 275.42,236.28 C274.02,236.013333 272.573333,235.88 271.08,235.88 C268.333333,235.88 265.933333,236.233333 263.88,236.94 C261.826667,237.646667 260.12,238.6 258.76,239.8 C257.4,241 256.38,242.393333 255.7,243.98 C255.02,245.566667 254.68,247.24 254.68,249 C254.68,250.893333 254.96,252.506667 255.52,253.84 C256.08,255.173333 256.813333,256.3 257.72,257.22 C258.626667,258.14 259.66,258.9 260.82,259.5 C261.98,260.1 263.16,260.613333 264.36,261.04 C265.56,261.466667 266.74,261.846667 267.9,262.18 C269.06,262.513333 270.093333,262.873333 271,263.26 C271.906667,263.646667 272.64,264.106667 273.2,264.64 C273.76,265.173333 274.04,265.853333 274.04,266.68 C274.04,267.133333 273.946667,267.573333 273.76,268 C273.573333,268.426667 273.28,268.813333 272.88,269.16 C272.48,269.506667 271.946667,269.78 271.28,269.98 C270.613333,270.18 269.8,270.28 268.84,270.28 C267.48,270.28 266.353333,270.12 265.46,269.8 C264.566667,269.48 263.786667,269.133333 263.12,268.76 C262.453333,268.386667 261.833333,268.04 261.26,267.72 C260.686667,267.4 260.04,267.24 259.32,267.24 C258.546667,267.24 257.92,267.393333 257.44,267.7 C256.96,268.006667 256.546667,268.426667 256.2,268.96 L256.2,268.96 L253.32,273.52 C254.12,274.24 255.08,274.913333 256.2,275.54 C257.32,276.166667 258.54,276.706667 259.86,277.16 C261.18,277.613333 262.546667,277.973333 263.96,278.24 C265.373333,278.506667 266.786667,278.64 268.2,278.64 Z M307,278.64 C309.133333,278.64 311.2,278.34 313.2,277.74 C315.2,277.14 317,276.24 318.6,275.04 L318.6,275.04 L314.84,269.16 C314.6,268.786667 314.366667,268.513333 314.14,268.34 C313.913333,268.166667 313.613333,268.08 313.24,268.08 C312.973333,268.08 312.74,268.126667 312.54,268.22 C312.34,268.313333 312.126667,268.42 311.9,268.54 C311.673333,268.66 311.406667,268.766667 311.1,268.86 C310.793333,268.953333 310.413333,269 309.96,269 C309.08,269 308.406667,268.686667 307.94,268.06 C307.473333,267.433333 307.24,266.64 307.24,265.68 L307.24,265.68 L307.24,245.08 L317.32,245.08 L317.32,236.6 L307.24,236.6 L307.24,224.48 L300.76,224.48 C299.266667,224.48 298.36,225.12 298.04,226.4 L298.04,226.4 L295.6,236.52 L289,237.8 L289,242.64 C289,243.44 289.226667,244.046667 289.68,244.46 C290.133333,244.873333 290.68,245.08 291.32,245.08 L291.32,245.08 L294.84,245.08 L294.84,266.52 C294.84,268.36 295.106667,270.026667 295.64,271.52 C296.173333,273.013333 296.953333,274.286667 297.98,275.34 C299.006667,276.393333 300.273333,277.206667 301.78,277.78 C303.286667,278.353333 305.026667,278.64 307,278.64 Z M334.92,278.64 C336.333333,278.64 337.62,278.526667 338.78,278.3 C339.94,278.073333 341.033333,277.726667 342.06,277.26 C343.086667,276.793333 344.08,276.226667 345.04,275.56 C346,274.893333 347,274.12 348.04,273.24 L348.04,273.24 L348.92,275.52 C349.32,276.533333 349.82,277.2 350.42,277.52 C351.02,277.84 351.906667,278 353.08,278 L353.08,278 L358.76,278 L358.76,252.08 C358.76,249.706667 358.386667,247.52 357.64,245.52 C356.893333,243.52 355.82,241.793333 354.42,240.34 C353.02,238.886667 351.313333,237.753333 349.3,236.94 C347.286667,236.126667 345.026667,235.72 342.52,235.72 C339.026667,235.72 335.753333,236.26 332.7,237.34 C329.646667,238.42 326.866667,240.066667 324.36,242.28 L324.36,242.28 L326.6,246.16 C326.946667,246.773333 327.42,247.286667 328.02,247.7 C328.62,248.113333 329.346667,248.32 330.2,248.32 C331.16,248.32 331.986667,248.16 332.68,247.84 C333.373333,247.52 334.086667,247.16 334.82,246.76 C335.553333,246.36 336.386667,246 337.32,245.68 C338.253333,245.36 339.453333,245.2 340.92,245.2 C342.76,245.2 344.18,245.74 345.18,246.82 C346.18,247.9 346.68,249.653333 346.68,252.08 L346.68,252.08 L346.68,253.84 C341.933333,253.946667 338,254.426667 334.88,255.28 C331.76,256.133333 329.28,257.193333 327.44,258.46 C325.6,259.726667 324.306667,261.133333 323.56,262.68 C322.813333,264.226667 322.44,265.733333 322.44,267.2 C322.44,269.066667 322.733333,270.713333 323.32,272.14 C323.906667,273.566667 324.74,274.76 325.82,275.72 C326.9,276.68 328.213333,277.406667 329.76,277.9 C331.306667,278.393333 333.026667,278.64 334.92,278.64 Z M338.84,270.44 C337.346667,270.44 336.213333,270.153333 335.44,269.58 C334.666667,269.006667 334.28,268.013333 334.28,266.6 C334.28,265.88 334.46,265.213333 334.82,264.6 C335.18,263.986667 335.826667,263.44 336.76,262.96 C337.693333,262.48 338.96,262.08 340.56,261.76 C342.16,261.44 344.2,261.226667 346.68,261.12 L346.68,261.12 L346.68,266.88 C345.453333,268.133333 344.24,269.04 343.04,269.6 C341.84,270.16 340.44,270.44 338.84,270.44 Z M382.12,278.64 C384.253333,278.64 386.32,278.34 388.32,277.74 C390.32,277.14 392.12,276.24 393.72,275.04 L393.72,275.04 L389.96,269.16 C389.72,268.786667 389.486667,268.513333 389.26,268.34 C389.033333,268.166667 388.733333,268.08 388.36,268.08 C388.093333,268.08 387.86,268.126667 387.66,268.22 C387.46,268.313333 387.246667,268.42 387.02,268.54 C386.793333,268.66 386.526667,268.766667 386.22,268.86 C385.913333,268.953333 385.533333,269 385.08,269 C384.2,269 383.526667,268.686667 383.06,268.06 C382.593333,267.433333 382.36,266.64 382.36,265.68 L382.36,265.68 L382.36,245.08 L392.44,245.08 L392.44,236.6 L382.36,236.6 L382.36,224.48 L375.88,224.48 C374.386667,224.48 373.48,225.12 373.16,226.4 L373.16,226.4 L370.72,236.52 L364.12,237.8 L364.12,242.64 C364.12,243.44 364.346667,244.046667 364.8,244.46 C365.253333,244.873333 365.8,245.08 366.44,245.08 L366.44,245.08 L369.96,245.08 L369.96,266.52 C369.96,268.36 370.226667,270.026667 370.76,271.52 C371.293333,273.013333 372.073333,274.286667 373.1,275.34 C374.126667,276.393333 375.393333,277.206667 376.9,277.78 C378.406667,278.353333 380.146667,278.64 382.12,278.64 Z M417.88,278.64 C419.293333,278.64 420.78,278.54 422.34,278.34 C423.9,278.14 425.46,277.78 427.02,277.26 C428.58,276.74 430.1,276.02 431.58,275.1 C433.06,274.18 434.44,272.986667 435.72,271.52 L435.72,271.52 L432.12,267.08 C431.613333,266.36 430.866667,266 429.88,266 C429.133333,266 428.42,266.173333 427.74,266.52 C427.06,266.866667 426.313333,267.253333 425.5,267.68 C424.686667,268.106667 423.76,268.493333 422.72,268.84 C421.68,269.186667 420.44,269.36 419,269.36 C416.306667,269.36 414.106667,268.58 412.4,267.02 C410.693333,265.46 409.64,262.946667 409.24,259.48 L409.24,259.48 L433.16,259.48 C433.72,259.48 434.18,259.413333 434.54,259.28 C434.9,259.146667 435.186667,258.906667 435.4,258.56 C435.613333,258.213333 435.76,257.746667 435.84,257.16 C435.92,256.573333 435.96,255.813333 435.96,254.88 C435.96,251.893333 435.5,249.22 434.58,246.86 C433.66,244.5 432.38,242.506667 430.74,240.88 C429.1,239.253333 427.14,238.013333 424.86,237.16 C422.58,236.306667 420.066667,235.88 417.32,235.88 C414.146667,235.88 411.3,236.426667 408.78,237.52 C406.26,238.613333 404.113333,240.093333 402.34,241.96 C400.566667,243.826667 399.206667,246 398.26,248.48 C397.313333,250.96 396.84,253.586667 396.84,256.36 C396.84,260.04 397.393333,263.266667 398.5,266.04 C399.606667,268.813333 401.113333,271.133333 403.02,273 C404.926667,274.866667 407.153333,276.273333 409.7,277.22 C412.246667,278.166667 414.973333,278.64 417.88,278.64 Z M424.84,252.28 L409.36,252.28 C409.786667,249.746667 410.666667,247.806667 412,246.46 C413.333333,245.113333 415.186667,244.44 417.56,244.44 C418.893333,244.44 420.026667,244.666667 420.96,245.12 C421.893333,245.573333 422.646667,246.166667 423.22,246.9 C423.793333,247.633333 424.206667,248.466667 424.46,249.4 C424.713333,250.333333 424.84,251.293333 424.84,252.28 L424.84,252.28 Z M62.44,310.36 C63.48,310.36 64.46,310.166667 65.38,309.78 C66.3,309.393333 67.1066667,308.873333 67.8,308.22 C68.4933333,307.566667 69.04,306.806667 69.44,305.94 C69.84,305.073333 70.04,304.146667 70.04,303.16 C70.04,302.146667 69.84,301.2 69.44,300.32 C69.04,299.44 68.4933333,298.666667 67.8,298 C67.1066667,297.333333 66.3,296.813333 65.38,296.44 C64.46,296.066667 63.48,295.88 62.44,295.88 C61.4266667,295.88 60.48,296.066667 59.6,296.44 C58.72,296.813333 57.94,297.333333 57.26,298 C56.58,298.666667 56.0466667,299.44 55.66,300.32 C55.2733333,301.2 55.08,302.146667 55.08,303.16 C55.08,304.146667 55.2733333,305.073333 55.66,305.94 C56.0466667,306.806667 56.58,307.566667 57.26,308.22 C57.94,308.873333 58.72,309.393333 59.6,309.78 C60.48,310.166667 61.4266667,310.36 62.44,310.36 Z M68.6,356 L68.6,314.52 L56.2,314.52 L56.2,356 L68.6,356 Z M91,356 L91,326.44 C92.0933333,325.453333 93.24,324.666667 94.44,324.08 C95.64,323.493333 96.92,323.2 98.28,323.2 C100.093333,323.2 101.466667,323.766667 102.4,324.9 C103.333333,326.033333 103.8,327.613333 103.8,329.64 L103.8,329.64 L103.8,356 L116.2,356 L116.2,329.64 C116.2,327.373333 115.893333,325.273333 115.28,323.34 C114.666667,321.406667 113.76,319.74 112.56,318.34 C111.36,316.94 109.886667,315.846667 108.14,315.06 C106.393333,314.273333 104.386667,313.88 102.12,313.88 C100.786667,313.88 99.5533333,314.006667 98.42,314.26 C97.2866667,314.513333 96.2333333,314.86 95.26,315.3 C94.2866667,315.74 93.3733333,316.28 92.52,316.92 C91.6666667,317.56 90.84,318.253333 90.04,319 L90.04,319 L89.32,316.6 C89.1066667,315.906667 88.74,315.386667 88.22,315.04 C87.7,314.693333 87.0533333,314.52 86.28,314.52 L86.28,314.52 L78.6,314.52 L78.6,356 L91,356 Z M137.24,356.64 C138.653333,356.64 139.966667,356.5 141.18,356.22 C142.393333,355.94 143.526667,355.54 144.58,355.02 C145.633333,354.5 146.613333,353.88 147.52,353.16 C148.426667,352.44 149.293333,351.64 150.12,350.76 L150.12,350.76 L151.08,353.92 C151.293333,354.613333 151.66,355.133333 152.18,355.48 C152.7,355.826667 153.346667,356 154.12,356 L154.12,356 L161.8,356 L161.8,296.12 L149.4,296.12 L149.4,317.12 C148.2,316.106667 146.86,315.286667 145.38,314.66 C143.9,314.033333 142.093333,313.72 139.96,313.72 C137.32,313.72 134.906667,314.266667 132.72,315.36 C130.533333,316.453333 128.66,317.966667 127.1,319.9 C125.54,321.833333 124.333333,324.126667 123.48,326.78 C122.626667,329.433333 122.2,332.306667 122.2,335.4 C122.2,338.76 122.58,341.753333 123.34,344.38 C124.1,347.006667 125.146667,349.226667 126.48,351.04 C127.813333,352.853333 129.4,354.24 131.24,355.2 C133.08,356.16 135.08,356.64 137.24,356.64 Z M141.56,347.12 C140.573333,347.12 139.68,346.92 138.88,346.52 C138.08,346.12 137.393333,345.46 136.82,344.54 C136.246667,343.62 135.8,342.413333 135.48,340.92 C135.16,339.426667 135,337.586667 135,335.4 C135,333.133333 135.2,331.2 135.6,329.6 C136,328 136.553333,326.7 137.26,325.7 C137.966667,324.7 138.8,323.973333 139.76,323.52 C140.72,323.066667 141.773333,322.84 142.92,322.84 C144.12,322.84 145.26,323.046667 146.34,323.46 C147.42,323.873333 148.44,324.6 149.4,325.64 L149.4,325.64 L149.4,343.24 C148.866667,343.88 148.326667,344.44 147.78,344.92 C147.233333,345.4 146.653333,345.8 146.04,346.12 C145.426667,346.44 144.753333,346.686667 144.02,346.86 C143.286667,347.033333 142.466667,347.12 141.56,347.12 Z M184.68,356.64 C186.013333,356.64 187.24,356.513333 188.36,356.26 C189.48,356.006667 190.526667,355.66 191.5,355.22 C192.473333,354.78 193.386667,354.246667 194.24,353.62 C195.093333,352.993333 195.92,352.293333 196.72,351.52 L196.72,351.52 L197.48,353.92 C197.96,355.306667 198.973333,356 200.52,356 L200.52,356 L208.2,356 L208.2,314.52 L195.8,314.52 L195.8,344.08 C194.68,345.093333 193.526667,345.88 192.34,346.44 C191.153333,347 189.88,347.28 188.52,347.28 C186.706667,347.28 185.333333,346.72 184.4,345.6 C183.466667,344.48 183,342.893333 183,340.84 L183,340.84 L183,314.52 L170.6,314.52 L170.6,340.84 C170.6,343.133333 170.906667,345.24 171.52,347.16 C172.133333,349.08 173.04,350.746667 174.24,352.16 C175.44,353.573333 176.913333,354.673333 178.66,355.46 C180.406667,356.246667 182.413333,356.64 184.68,356.64 Z M228.76,356.64 C231.586667,356.64 234.086667,356.293333 236.26,355.6 C238.433333,354.906667 240.26,353.933333 241.74,352.68 C243.22,351.426667 244.333333,349.933333 245.08,348.2 C245.826667,346.466667 246.2,344.573333 246.2,342.52 C246.2,340.84 245.926667,339.4 245.38,338.2 C244.833333,337 244.106667,335.98 243.2,335.14 C242.293333,334.3 241.266667,333.593333 240.12,333.02 C238.973333,332.446667 237.8,331.946667 236.6,331.52 C235.4,331.093333 234.226667,330.706667 233.08,330.36 C231.933333,330.013333 230.906667,329.646667 230,329.26 C229.093333,328.873333 228.366667,328.426667 227.82,327.92 C227.273333,327.413333 227,326.773333 227,326 C227,324.933333 227.42,324.1 228.26,323.5 C229.1,322.9 230.306667,322.6 231.88,322.6 C232.973333,322.6 233.946667,322.726667 234.8,322.98 C235.653333,323.233333 236.42,323.506667 237.1,323.8 C237.78,324.093333 238.413333,324.366667 239,324.62 C239.586667,324.873333 240.173333,325 240.76,325 C241.32,325 241.78,324.893333 242.14,324.68 C242.5,324.466667 242.84,324.106667 243.16,323.6 L243.16,323.6 L245.96,319.24 C245.186667,318.466667 244.293333,317.753333 243.28,317.1 C242.266667,316.446667 241.146667,315.88 239.92,315.4 C238.693333,314.92 237.38,314.546667 235.98,314.28 C234.58,314.013333 233.133333,313.88 231.64,313.88 C228.893333,313.88 226.493333,314.233333 224.44,314.94 C222.386667,315.646667 220.68,316.6 219.32,317.8 C217.96,319 216.94,320.393333 216.26,321.98 C215.58,323.566667 215.24,325.24 215.24,327 C215.24,328.893333 215.52,330.506667 216.08,331.84 C216.64,333.173333 217.373333,334.3 218.28,335.22 C219.186667,336.14 220.22,336.9 221.38,337.5 C222.54,338.1 223.72,338.613333 224.92,339.04 C226.12,339.466667 227.3,339.846667 228.46,340.18 C229.62,340.513333 230.653333,340.873333 231.56,341.26 C232.466667,341.646667 233.2,342.106667 233.76,342.64 C234.32,343.173333 234.6,343.853333 234.6,344.68 C234.6,345.133333 234.506667,345.573333 234.32,346 C234.133333,346.426667 233.84,346.813333 233.44,347.16 C233.04,347.506667 232.506667,347.78 231.84,347.98 C231.173333,348.18 230.36,348.28 229.4,348.28 C228.04,348.28 226.913333,348.12 226.02,347.8 C225.126667,347.48 224.346667,347.133333 223.68,346.76 C223.013333,346.386667 222.393333,346.04 221.82,345.72 C221.246667,345.4 220.6,345.24 219.88,345.24 C219.106667,345.24 218.48,345.393333 218,345.7 C217.52,346.006667 217.106667,346.426667 216.76,346.96 L216.76,346.96 L213.88,351.52 C214.68,352.24 215.64,352.913333 216.76,353.54 C217.88,354.166667 219.1,354.706667 220.42,355.16 C221.74,355.613333 223.106667,355.973333 224.52,356.24 C225.933333,356.506667 227.346667,356.64 228.76,356.64 Z M267.56,356.64 C269.693333,356.64 271.76,356.34 273.76,355.74 C275.76,355.14 277.56,354.24 279.16,353.04 L279.16,353.04 L275.4,347.16 C275.16,346.786667 274.926667,346.513333 274.7,346.34 C274.473333,346.166667 274.173333,346.08 273.8,346.08 C273.533333,346.08 273.3,346.126667 273.1,346.22 C272.9,346.313333 272.686667,346.42 272.46,346.54 C272.233333,346.66 271.966667,346.766667 271.66,346.86 C271.353333,346.953333 270.973333,347 270.52,347 C269.64,347 268.966667,346.686667 268.5,346.06 C268.033333,345.433333 267.8,344.64 267.8,343.68 L267.8,343.68 L267.8,323.08 L277.88,323.08 L277.88,314.6 L267.8,314.6 L267.8,302.48 L261.32,302.48 C259.826667,302.48 258.92,303.12 258.6,304.4 L258.6,304.4 L256.16,314.52 L249.56,315.8 L249.56,320.64 C249.56,321.44 249.786667,322.046667 250.24,322.46 C250.693333,322.873333 251.24,323.08 251.88,323.08 L251.88,323.08 L255.4,323.08 L255.4,344.52 C255.4,346.36 255.666667,348.026667 256.2,349.52 C256.733333,351.013333 257.513333,352.286667 258.54,353.34 C259.566667,354.393333 260.833333,355.206667 262.34,355.78 C263.846667,356.353333 265.586667,356.64 267.56,356.64 Z M297.4,356 L297.4,330.56 C299.266667,327.093333 301.826667,325.36 305.08,325.36 C306.013333,325.36 306.786667,325.42 307.4,325.54 C308.013333,325.66 308.546667,325.72 309,325.72 C309.533333,325.72 309.96,325.606667 310.28,325.38 C310.6,325.153333 310.813333,324.76 310.92,324.2 L310.92,324.2 L312.52,315.08 C311.373333,314.173333 309.853333,313.72 307.96,313.72 C305.72,313.72 303.653333,314.4 301.76,315.76 C299.866667,317.12 298.16,318.973333 296.64,321.32 L296.64,321.32 L295.96,317.44 C295.853333,316.906667 295.726667,316.453333 295.58,316.08 C295.433333,315.706667 295.22,315.406667 294.94,315.18 C294.66,314.953333 294.313333,314.786667 293.9,314.68 C293.486667,314.573333 292.973333,314.52 292.36,314.52 L292.36,314.52 L285,314.52 L285,356 L297.4,356 Z M331.08,369.16 C332.253333,369.16 333.106667,368.966667 333.64,368.58 C334.173333,368.193333 334.626667,367.586667 335,366.76 L335,366.76 L357.16,314.52 L347.16,314.52 C346.44,314.52 345.766667,314.726667 345.14,315.14 C344.513333,315.553333 344.093333,316.066667 343.88,316.68 L343.88,316.68 L337.72,334.48 C337.426667,335.333333 337.12,336.173333 336.8,337 C336.48,337.826667 336.186667,338.666667 335.92,339.52 C335.52,337.866667 335,336.213333 334.36,334.56 L334.36,334.56 L327.56,316.68 C327.346667,316.093333 326.973333,315.586667 326.44,315.16 C325.906667,314.733333 325.16,314.52 324.2,314.52 L324.2,314.52 L313.24,314.52 L329.8,352.36 L321.8,369.16 L331.08,369.16 Z M366.92,356.56 C367.906667,356.56 368.826667,356.386667 369.68,356.04 C370.533333,355.693333 371.28,355.213333 371.92,354.6 C372.56,353.986667 373.06,353.26 373.42,352.42 C373.78,351.58 373.96,350.68 373.96,349.72 C373.96,348.76 373.78,347.866667 373.42,347.04 C373.06,346.213333 372.56,345.493333 371.92,344.88 C371.28,344.266667 370.533333,343.78 369.68,343.42 C368.826667,343.06 367.906667,342.88 366.92,342.88 C365.906667,342.88 364.973333,343.06 364.12,343.42 C363.266667,343.78 362.526667,344.266667 361.9,344.88 C361.273333,345.493333 360.78,346.213333 360.42,347.04 C360.06,347.866667 359.88,348.76 359.88,349.72 C359.88,350.68 360.06,351.58 360.42,352.42 C360.78,353.26 361.273333,353.986667 361.9,354.6 C362.526667,355.213333 363.266667,355.693333 364.12,356.04 C364.973333,356.386667 365.906667,356.56 366.92,356.56 Z" id="path-2"></path>
        <linearGradient x1="50%" y1="0%" x2="50%" y2="100%" id="linearGradient-3">
            <stop stop-color="#F4B829" offset="0%"></stop>
            <stop stop-color="#FBDE1E" offset="100%"></stop>
        </linearGradient>
    </defs>
    <g id="Homepage" stroke="none" stroke-width="1" fill="none" fill-rule="evenodd">
        <g id="Group-8" transform="translate(3.000000, 3.000000)">
            <path d="M81.64,118 L92.76,81.88 C92.9466667,81.32 93.14,80.7066667 93.34,80.04 C93.54,79.3733333 93.7333333,78.6666667 93.92,77.92 C94.1066667,78.6666667 94.3,79.3733333 94.5,80.04 C94.7,80.7066667 94.8933333,81.32 95.08,81.88 L95.08,81.88 L106.04,118 L118.28,118 L136.28,59.72 L125.64,59.72 C124.52,59.72 123.56,60.0133333 122.76,60.6 C121.96,61.1866667 121.453333,61.8666667 121.24,62.64 L121.24,62.64 L113.24,93.04 C113,93.9733333 112.766667,94.9733333 112.54,96.04 C112.313333,97.1066667 112.093333,98.2266667 111.88,99.4 C111.64,98.2 111.36,97.0733333 111.04,96.02 C110.72,94.9666667 110.413333,93.9733333 110.12,93.04 L110.12,93.04 L100.76,62.64 C100.466667,61.7333333 99.94,61.02 99.18,60.5 C98.42,59.98 97.4533333,59.72 96.28,59.72 L96.28,59.72 L92.28,59.72 C91.16,59.72 90.2066667,60.02 89.42,60.62 C88.6333333,61.22 88.12,61.8933333 87.88,62.64 L87.88,62.64 L78.44,93.04 C78.1466667,94.0266667 77.84,95.0733333 77.52,96.18 C77.2,97.2866667 76.9066667,98.4666667 76.64,99.72 C76.5066667,98.4933333 76.3066667,97.32 76.04,96.2 C75.7733333,95.08 75.5066667,94.0266667 75.24,93.04 L75.24,93.04 L67.24,62.64 C67,61.76 66.4866667,61.0533333 65.7,60.52 C64.9133333,59.9866667 63.9333333,59.72 62.76,59.72 L62.76,59.72 L51.4,59.72 L69.4,118 L81.64,118 Z M159.8,118.64 C161.213333,118.64 162.7,118.54 164.26,118.34 C165.82,118.14 167.38,117.78 168.94,117.26 C170.5,116.74 172.02,116.02 173.5,115.1 C174.98,114.18 176.36,112.986667 177.64,111.52 L177.64,111.52 L174.04,107.08 C173.533333,106.36 172.786667,106 171.8,106 C171.053333,106 170.34,106.173333 169.66,106.52 C168.98,106.866667 168.233333,107.253333 167.42,107.68 C166.606667,108.106667 165.68,108.493333 164.64,108.84 C163.6,109.186667 162.36,109.36 160.92,109.36 C158.226667,109.36 156.026667,108.58 154.32,107.02 C152.613333,105.46 151.56,102.946667 151.16,99.48 L151.16,99.48 L175.08,99.48 C175.64,99.48 176.1,99.4133333 176.46,99.28 C176.82,99.1466667 177.106667,98.9066667 177.32,98.56 C177.533333,98.2133333 177.68,97.7466667 177.76,97.16 C177.84,96.5733333 177.88,95.8133333 177.88,94.88 C177.88,91.8933333 177.42,89.22 176.5,86.86 C175.58,84.5 174.3,82.5066667 172.66,80.88 C171.02,79.2533333 169.06,78.0133333 166.78,77.16 C164.5,76.3066667 161.986667,75.88 159.24,75.88 C156.066667,75.88 153.22,76.4266667 150.7,77.52 C148.18,78.6133333 146.033333,80.0933333 144.26,81.96 C142.486667,83.8266667 141.126667,86 140.18,88.48 C139.233333,90.96 138.76,93.5866667 138.76,96.36 C138.76,100.04 139.313333,103.266667 140.42,106.04 C141.526667,108.813333 143.033333,111.133333 144.94,113 C146.846667,114.866667 149.073333,116.273333 151.62,117.22 C154.166667,118.166667 156.893333,118.64 159.8,118.64 Z M166.76,92.28 L151.28,92.28 C151.706667,89.7466667 152.586667,87.8066667 153.92,86.46 C155.253333,85.1133333 157.106667,84.44 159.48,84.44 C160.813333,84.44 161.946667,84.6666667 162.88,85.12 C163.813333,85.5733333 164.566667,86.1666667 165.14,86.9 C165.713333,87.6333333 166.126667,88.4666667 166.38,89.4 C166.633333,90.3333333 166.76,91.2933333 166.76,92.28 L166.76,92.28 Z M211.4,118.64 C214.226667,118.64 216.726667,118.293333 218.9,117.6 C221.073333,116.906667 222.9,115.933333 224.38,114.68 C225.86,113.426667 226.973333,111.933333 227.72,110.2 C228.466667,108.466667 228.84,106.573333 228.84,104.52 C228.84,102.84 228.566667,101.4 228.02,100.2 C227.473333,99 226.746667,97.98 225.84,97.14 C224.933333,96.3 223.906667,95.5933333 222.76,95.02 C221.613333,94.4466667 220.44,93.9466667 219.24,93.52 C218.04,93.0933333 216.866667,92.7066667 215.72,92.36 C214.573333,92.0133333 213.546667,91.6466667 212.64,91.26 C211.733333,90.8733333 211.006667,90.4266667 210.46,89.92 C209.913333,89.4133333 209.64,88.7733333 209.64,88 C209.64,86.9333333 210.06,86.1 210.9,85.5 C211.74,84.9 212.946667,84.6 214.52,84.6 C215.613333,84.6 216.586667,84.7266667 217.44,84.98 C218.293333,85.2333333 219.06,85.5066667 219.74,85.8 C220.42,86.0933333 221.053333,86.3666667 221.64,86.62 C222.226667,86.8733333 222.813333,87 223.4,87 C223.96,87 224.42,86.8933333 224.78,86.68 C225.14,86.4666667 225.48,86.1066667 225.8,85.6 L225.8,85.6 L228.6,81.24 C227.826667,80.4666667 226.933333,79.7533333 225.92,79.1 C224.906667,78.4466667 223.786667,77.88 222.56,77.4 C221.333333,76.92 220.02,76.5466667 218.62,76.28 C217.22,76.0133333 215.773333,75.88 214.28,75.88 C211.533333,75.88 209.133333,76.2333333 207.08,76.94 C205.026667,77.6466667 203.32,78.6 201.96,79.8 C200.6,81 199.58,82.3933333 198.9,83.98 C198.22,85.5666667 197.88,87.24 197.88,89 C197.88,90.8933333 198.16,92.5066667 198.72,93.84 C199.28,95.1733333 200.013333,96.3 200.92,97.22 C201.826667,98.14 202.86,98.9 204.02,99.5 C205.18,100.1 206.36,100.613333 207.56,101.04 C208.76,101.466667 209.94,101.846667 211.1,102.18 C212.26,102.513333 213.293333,102.873333 214.2,103.26 C215.106667,103.646667 215.84,104.106667 216.4,104.64 C216.96,105.173333 217.24,105.853333 217.24,106.68 C217.24,107.133333 217.146667,107.573333 216.96,108 C216.773333,108.426667 216.48,108.813333 216.08,109.16 C215.68,109.506667 215.146667,109.78 214.48,109.98 C213.813333,110.18 213,110.28 212.04,110.28 C210.68,110.28 209.553333,110.12 208.66,109.8 C207.766667,109.48 206.986667,109.133333 206.32,108.76 C205.653333,108.386667 205.033333,108.04 204.46,107.72 C203.886667,107.4 203.24,107.24 202.52,107.24 C201.746667,107.24 201.12,107.393333 200.64,107.7 C200.16,108.006667 199.746667,108.426667 199.4,108.96 L199.4,108.96 L196.52,113.52 C197.32,114.24 198.28,114.913333 199.4,115.54 C200.52,116.166667 201.74,116.706667 203.06,117.16 C204.38,117.613333 205.746667,117.973333 207.16,118.24 C208.573333,118.506667 209.986667,118.64 211.4,118.64 Z M250.2,118.64 C252.333333,118.64 254.4,118.34 256.4,117.74 C258.4,117.14 260.2,116.24 261.8,115.04 L261.8,115.04 L258.04,109.16 C257.8,108.786667 257.566667,108.513333 257.34,108.34 C257.113333,108.166667 256.813333,108.08 256.44,108.08 C256.173333,108.08 255.94,108.126667 255.74,108.22 C255.54,108.313333 255.326667,108.42 255.1,108.54 C254.873333,108.66 254.606667,108.766667 254.3,108.86 C253.993333,108.953333 253.613333,109 253.16,109 C252.28,109 251.606667,108.686667 251.14,108.06 C250.673333,107.433333 250.44,106.64 250.44,105.68 L250.44,105.68 L250.44,85.08 L260.52,85.08 L260.52,76.6 L250.44,76.6 L250.44,64.48 L243.96,64.48 C242.466667,64.48 241.56,65.12 241.24,66.4 L241.24,66.4 L238.8,76.52 L232.2,77.8 L232.2,82.64 C232.2,83.44 232.426667,84.0466667 232.88,84.46 C233.333333,84.8733333 233.88,85.08 234.52,85.08 L234.52,85.08 L238.04,85.08 L238.04,106.52 C238.04,108.36 238.306667,110.026667 238.84,111.52 C239.373333,113.013333 240.153333,114.286667 241.18,115.34 C242.206667,116.393333 243.473333,117.206667 244.98,117.78 C246.486667,118.353333 248.226667,118.64 250.2,118.64 Z M278.12,118.64 C279.533333,118.64 280.82,118.526667 281.98,118.3 C283.14,118.073333 284.233333,117.726667 285.26,117.26 C286.286667,116.793333 287.28,116.226667 288.24,115.56 C289.2,114.893333 290.2,114.12 291.24,113.24 L291.24,113.24 L292.12,115.52 C292.52,116.533333 293.02,117.2 293.62,117.52 C294.22,117.84 295.106667,118 296.28,118 L296.28,118 L301.96,118 L301.96,92.08 C301.96,89.7066667 301.586667,87.52 300.84,85.52 C300.093333,83.52 299.02,81.7933333 297.62,80.34 C296.22,78.8866667 294.513333,77.7533333 292.5,76.94 C290.486667,76.1266667 288.226667,75.72 285.72,75.72 C282.226667,75.72 278.953333,76.26 275.9,77.34 C272.846667,78.42 270.066667,80.0666667 267.56,82.28 L267.56,82.28 L269.8,86.16 C270.146667,86.7733333 270.62,87.2866667 271.22,87.7 C271.82,88.1133333 272.546667,88.32 273.4,88.32 C274.36,88.32 275.186667,88.16 275.88,87.84 C276.573333,87.52 277.286667,87.16 278.02,86.76 C278.753333,86.36 279.586667,86 280.52,85.68 C281.453333,85.36 282.653333,85.2 284.12,85.2 C285.96,85.2 287.38,85.74 288.38,86.82 C289.38,87.9 289.88,89.6533333 289.88,92.08 L289.88,92.08 L289.88,93.84 C285.133333,93.9466667 281.2,94.4266667 278.08,95.28 C274.96,96.1333333 272.48,97.1933333 270.64,98.46 C268.8,99.7266667 267.506667,101.133333 266.76,102.68 C266.013333,104.226667 265.64,105.733333 265.64,107.2 C265.64,109.066667 265.933333,110.713333 266.52,112.14 C267.106667,113.566667 267.94,114.76 269.02,115.72 C270.1,116.68 271.413333,117.406667 272.96,117.9 C274.506667,118.393333 276.226667,118.64 278.12,118.64 Z M282.04,110.44 C280.546667,110.44 279.413333,110.153333 278.64,109.58 C277.866667,109.006667 277.48,108.013333 277.48,106.6 C277.48,105.88 277.66,105.213333 278.02,104.6 C278.38,103.986667 279.026667,103.44 279.96,102.96 C280.893333,102.48 282.16,102.08 283.76,101.76 C285.36,101.44 287.4,101.226667 289.88,101.12 L289.88,101.12 L289.88,106.88 C288.653333,108.133333 287.44,109.04 286.24,109.6 C285.04,110.16 283.64,110.44 282.04,110.44 Z M323.16,118 L323.16,88.44 C324.253333,87.4533333 325.4,86.6666667 326.6,86.08 C327.8,85.4933333 329.08,85.2 330.44,85.2 C332.253333,85.2 333.626667,85.7666667 334.56,86.9 C335.493333,88.0333333 335.96,89.6133333 335.96,91.64 L335.96,91.64 L335.96,118 L348.36,118 L348.36,91.64 C348.36,89.3733333 348.053333,87.2733333 347.44,85.34 C346.826667,83.4066667 345.92,81.74 344.72,80.34 C343.52,78.94 342.046667,77.8466667 340.3,77.06 C338.553333,76.2733333 336.546667,75.88 334.28,75.88 C332.946667,75.88 331.713333,76.0066667 330.58,76.26 C329.446667,76.5133333 328.393333,76.86 327.42,77.3 C326.446667,77.74 325.533333,78.28 324.68,78.92 C323.826667,79.56 323,80.2533333 322.2,81 L322.2,81 L321.48,78.6 C321.266667,77.9066667 320.9,77.3866667 320.38,77.04 C319.86,76.6933333 319.213333,76.52 318.44,76.52 L318.44,76.52 L310.76,76.52 L310.76,118 L323.16,118 Z M369.4,118.64 C370.813333,118.64 372.126667,118.5 373.34,118.22 C374.553333,117.94 375.686667,117.54 376.74,117.02 C377.793333,116.5 378.773333,115.88 379.68,115.16 C380.586667,114.44 381.453333,113.64 382.28,112.76 L382.28,112.76 L383.24,115.92 C383.453333,116.613333 383.82,117.133333 384.34,117.48 C384.86,117.826667 385.506667,118 386.28,118 L386.28,118 L393.96,118 L393.96,58.12 L381.56,58.12 L381.56,79.12 C380.36,78.1066667 379.02,77.2866667 377.54,76.66 C376.06,76.0333333 374.253333,75.72 372.12,75.72 C369.48,75.72 367.066667,76.2666667 364.88,77.36 C362.693333,78.4533333 360.82,79.9666667 359.26,81.9 C357.7,83.8333333 356.493333,86.1266667 355.64,88.78 C354.786667,91.4333333 354.36,94.3066667 354.36,97.4 C354.36,100.76 354.74,103.753333 355.5,106.38 C356.26,109.006667 357.306667,111.226667 358.64,113.04 C359.973333,114.853333 361.56,116.24 363.4,117.2 C365.24,118.16 367.24,118.64 369.4,118.64 Z M373.72,109.12 C372.733333,109.12 371.84,108.92 371.04,108.52 C370.24,108.12 369.553333,107.46 368.98,106.54 C368.406667,105.62 367.96,104.413333 367.64,102.92 C367.32,101.426667 367.16,99.5866667 367.16,97.4 C367.16,95.1333333 367.36,93.2 367.76,91.6 C368.16,90 368.713333,88.7 369.42,87.7 C370.126667,86.7 370.96,85.9733333 371.92,85.52 C372.88,85.0666667 373.933333,84.84 375.08,84.84 C376.28,84.84 377.42,85.0466667 378.5,85.46 C379.58,85.8733333 380.6,86.6 381.56,87.64 L381.56,87.64 L381.56,105.24 C381.026667,105.88 380.486667,106.44 379.94,106.92 C379.393333,107.4 378.813333,107.8 378.2,108.12 C377.586667,108.44 376.913333,108.686667 376.18,108.86 C375.446667,109.033333 374.626667,109.12 373.72,109.12 Z M433.56,118.64 C435.693333,118.64 437.76,118.34 439.76,117.74 C441.76,117.14 443.56,116.24 445.16,115.04 L445.16,115.04 L441.4,109.16 C441.16,108.786667 440.926667,108.513333 440.7,108.34 C440.473333,108.166667 440.173333,108.08 439.8,108.08 C439.533333,108.08 439.3,108.126667 439.1,108.22 C438.9,108.313333 438.686667,108.42 438.46,108.54 C438.233333,108.66 437.966667,108.766667 437.66,108.86 C437.353333,108.953333 436.973333,109 436.52,109 C435.64,109 434.966667,108.686667 434.5,108.06 C434.033333,107.433333 433.8,106.64 433.8,105.68 L433.8,105.68 L433.8,85.08 L443.88,85.08 L443.88,76.6 L433.8,76.6 L433.8,64.48 L427.32,64.48 C425.826667,64.48 424.92,65.12 424.6,66.4 L424.6,66.4 L422.16,76.52 L415.56,77.8 L415.56,82.64 C415.56,83.44 415.786667,84.0466667 416.24,84.46 C416.693333,84.8733333 417.24,85.08 417.88,85.08 L417.88,85.08 L421.4,85.08 L421.4,106.52 C421.4,108.36 421.666667,110.026667 422.2,111.52 C422.733333,113.013333 423.513333,114.286667 424.54,115.34 C425.566667,116.393333 426.833333,117.206667 428.34,117.78 C429.846667,118.353333 431.586667,118.64 433.56,118.64 Z M469.48,118.64 C472.626667,118.64 475.493333,118.14 478.08,117.14 C480.666667,116.14 482.886667,114.713333 484.74,112.86 C486.593333,111.006667 488.033333,108.753333 489.06,106.1 C490.086667,103.446667 490.6,100.466667 490.6,97.16 C490.6,93.88 490.086667,90.9266667 489.06,88.3 C488.033333,85.6733333 486.593333,83.44 484.74,81.6 C482.886667,79.76 480.666667,78.3466667 478.08,77.36 C475.493333,76.3733333 472.626667,75.88 469.48,75.88 C466.306667,75.88 463.42,76.3733333 460.82,77.36 C458.22,78.3466667 455.98,79.76 454.1,81.6 C452.22,83.44 450.766667,85.6733333 449.74,88.3 C448.713333,90.9266667 448.2,93.88 448.2,97.16 C448.2,100.466667 448.713333,103.446667 449.74,106.1 C450.766667,108.753333 452.22,111.006667 454.1,112.86 C455.98,114.713333 458.22,116.14 460.82,117.14 C463.42,118.14 466.306667,118.64 469.48,118.64 Z M469.48,109.44 C466.546667,109.44 464.4,108.433333 463.04,106.42 C461.68,104.406667 461,101.346667 461,97.24 C461,93.1333333 461.68,90.08 463.04,88.08 C464.4,86.08 466.546667,85.08 469.48,85.08 C472.333333,85.08 474.433333,86.08 475.78,88.08 C477.126667,90.08 477.8,93.1333333 477.8,97.24 C477.8,101.346667 477.126667,104.406667 475.78,106.42 C474.433333,108.433333 472.333333,109.44 469.48,109.44 Z M72.12,196.64 C73.5333333,196.64 74.9866667,196.54 76.48,196.34 C77.9733333,196.14 79.46,195.78 80.94,195.26 C82.42,194.74 83.8666667,194.02 85.28,193.1 C86.6933333,192.18 88.04,190.986667 89.32,189.52 L89.32,189.52 L85.72,185.08 C85.2133333,184.36 84.4666667,184 83.48,184 C82.7333333,184 82.1133333,184.186667 81.62,184.56 C81.1266667,184.933333 80.5866667,185.34 80,185.78 C79.4133333,186.22 78.7,186.62 77.86,186.98 C77.02,187.34 75.88,187.52 74.44,187.52 C71.7466667,187.52 69.6333333,186.453333 68.1,184.32 C66.5666667,182.186667 65.8,179.133333 65.8,175.16 C65.8,173.266667 65.9733333,171.566667 66.32,170.06 C66.6666667,168.553333 67.2,167.28 67.92,166.24 C68.64,165.2 69.5533333,164.4 70.66,163.84 C71.7666667,163.28 73.08,163 74.6,163 C75.8266667,163 76.8533333,163.146667 77.68,163.44 C78.5066667,163.733333 79.2266667,164.06 79.84,164.42 C80.4533333,164.78 81.0066667,165.106667 81.5,165.4 C81.9933333,165.693333 82.5466667,165.84 83.16,165.84 C83.8,165.84 84.2933333,165.706667 84.64,165.44 C84.9866667,165.173333 85.3466667,164.813333 85.72,164.36 L85.72,164.36 L89,160 C87.0266667,158 84.8133333,156.48 82.36,155.44 C79.9066667,154.4 77.0533333,153.88 73.8,153.88 C70.4133333,153.88 67.4333333,154.426667 64.86,155.52 C62.2866667,156.613333 60.1266667,158.113333 58.38,160.02 C56.6333333,161.926667 55.3133333,164.18 54.42,166.78 C53.5266667,169.38 53.08,172.173333 53.08,175.16 C53.08,178.573333 53.5933333,181.613333 54.62,184.28 C55.6466667,186.946667 57.0333333,189.193333 58.78,191.02 C60.5266667,192.846667 62.5533333,194.24 64.86,195.2 C67.1666667,196.16 69.5866667,196.64 72.12,196.64 Z M107.08,196 L107.08,166.44 C108.173333,165.453333 109.32,164.666667 110.52,164.08 C111.72,163.493333 113,163.2 114.36,163.2 C116.173333,163.2 117.546667,163.766667 118.48,164.9 C119.413333,166.033333 119.88,167.613333 119.88,169.64 L119.88,169.64 L119.88,196 L132.28,196 L132.28,169.64 C132.28,167.373333 131.973333,165.273333 131.36,163.34 C130.746667,161.406667 129.84,159.74 128.64,158.34 C127.44,156.94 125.966667,155.846667 124.22,155.06 C122.473333,154.273333 120.466667,153.88 118.2,153.88 C115.773333,153.88 113.686667,154.273333 111.94,155.06 C110.193333,155.846667 108.573333,156.88 107.08,158.16 L107.08,158.16 L107.08,136.12 L94.68,136.12 L94.68,196 L107.08,196 Z M151.56,196.64 C152.973333,196.64 154.26,196.526667 155.42,196.3 C156.58,196.073333 157.673333,195.726667 158.7,195.26 C159.726667,194.793333 160.72,194.226667 161.68,193.56 C162.64,192.893333 163.64,192.12 164.68,191.24 L164.68,191.24 L165.56,193.52 C165.96,194.533333 166.46,195.2 167.06,195.52 C167.66,195.84 168.546667,196 169.72,196 L169.72,196 L175.4,196 L175.4,170.08 C175.4,167.706667 175.026667,165.52 174.28,163.52 C173.533333,161.52 172.46,159.793333 171.06,158.34 C169.66,156.886667 167.953333,155.753333 165.94,154.94 C163.926667,154.126667 161.666667,153.72 159.16,153.72 C155.666667,153.72 152.393333,154.26 149.34,155.34 C146.286667,156.42 143.506667,158.066667 141,160.28 L141,160.28 L143.24,164.16 C143.586667,164.773333 144.06,165.286667 144.66,165.7 C145.26,166.113333 145.986667,166.32 146.84,166.32 C147.8,166.32 148.626667,166.16 149.32,165.84 C150.013333,165.52 150.726667,165.16 151.46,164.76 C152.193333,164.36 153.026667,164 153.96,163.68 C154.893333,163.36 156.093333,163.2 157.56,163.2 C159.4,163.2 160.82,163.74 161.82,164.82 C162.82,165.9 163.32,167.653333 163.32,170.08 L163.32,170.08 L163.32,171.84 C158.573333,171.946667 154.64,172.426667 151.52,173.28 C148.4,174.133333 145.92,175.193333 144.08,176.46 C142.24,177.726667 140.946667,179.133333 140.2,180.68 C139.453333,182.226667 139.08,183.733333 139.08,185.2 C139.08,187.066667 139.373333,188.713333 139.96,190.14 C140.546667,191.566667 141.38,192.76 142.46,193.72 C143.54,194.68 144.853333,195.406667 146.4,195.9 C147.946667,196.393333 149.666667,196.64 151.56,196.64 Z M155.48,188.44 C153.986667,188.44 152.853333,188.153333 152.08,187.58 C151.306667,187.006667 150.92,186.013333 150.92,184.6 C150.92,183.88 151.1,183.213333 151.46,182.6 C151.82,181.986667 152.466667,181.44 153.4,180.96 C154.333333,180.48 155.6,180.08 157.2,179.76 C158.8,179.44 160.84,179.226667 163.32,179.12 L163.32,179.12 L163.32,184.88 C162.093333,186.133333 160.88,187.04 159.68,187.6 C158.48,188.16 157.08,188.44 155.48,188.44 Z M196.6,196 L196.6,166.44 C197.693333,165.453333 198.84,164.666667 200.04,164.08 C201.24,163.493333 202.52,163.2 203.88,163.2 C205.693333,163.2 207.066667,163.766667 208,164.9 C208.933333,166.033333 209.4,167.613333 209.4,169.64 L209.4,169.64 L209.4,196 L221.8,196 L221.8,169.64 C221.8,167.373333 221.493333,165.273333 220.88,163.34 C220.266667,161.406667 219.36,159.74 218.16,158.34 C216.96,156.94 215.486667,155.846667 213.74,155.06 C211.993333,154.273333 209.986667,153.88 207.72,153.88 C206.386667,153.88 205.153333,154.006667 204.02,154.26 C202.886667,154.513333 201.833333,154.86 200.86,155.3 C199.886667,155.74 198.973333,156.28 198.12,156.92 C197.266667,157.56 196.44,158.253333 195.64,159 L195.64,159 L194.92,156.6 C194.706667,155.906667 194.34,155.386667 193.82,155.04 C193.3,154.693333 192.653333,154.52 191.88,154.52 L191.88,154.52 L184.2,154.52 L184.2,196 L196.6,196 Z M245.24,210.28 C248.546667,210.28 251.48,209.86 254.04,209.02 C256.6,208.18 258.76,207.066667 260.52,205.68 C262.28,204.293333 263.613333,202.706667 264.52,200.92 C265.426667,199.133333 265.88,197.306667 265.88,195.44 C265.88,193.44 265.513333,191.793333 264.78,190.5 C264.046667,189.206667 263.08,188.173333 261.88,187.4 C260.68,186.626667 259.306667,186.066667 257.76,185.72 C256.213333,185.373333 254.64,185.126667 253.04,184.98 C251.44,184.833333 249.866667,184.74 248.32,184.7 C246.773333,184.66 245.4,184.58 244.2,184.46 C243,184.34 242.033333,184.126667 241.3,183.82 C240.566667,183.513333 240.2,183.013333 240.2,182.32 C240.2,181.626667 240.653333,181.013333 241.56,180.48 C242.706667,180.64 243.933333,180.72 245.24,180.72 C247.586667,180.72 249.786667,180.406667 251.84,179.78 C253.893333,179.153333 255.673333,178.26 257.18,177.1 C258.686667,175.94 259.873333,174.533333 260.74,172.88 C261.606667,171.226667 262.04,169.36 262.04,167.28 C262.04,166 261.853333,164.76 261.48,163.56 L261.48,163.56 L264.52,162.88 C265.453333,162.666667 266.113333,162.36 266.5,161.96 C266.886667,161.56 267.08,161.013333 267.08,160.32 L267.08,160.32 L267.08,155.8 L254.56,155.8 C253.226667,155.16 251.78,154.666667 250.22,154.32 C248.66,153.973333 247,153.8 245.24,153.8 C242.813333,153.8 240.56,154.113333 238.48,154.74 C236.4,155.366667 234.593333,156.26 233.06,157.42 C231.526667,158.58 230.32,159.993333 229.44,161.66 C228.56,163.326667 228.12,165.2 228.12,167.28 C228.12,169.786667 228.74,171.986667 229.98,173.88 C231.22,175.773333 232.92,177.293333 235.08,178.44 C234.12,178.893333 233.293333,179.413333 232.6,180 C231.906667,180.586667 231.333333,181.2 230.88,181.84 C230.426667,182.48 230.093333,183.14 229.88,183.82 C229.666667,184.5 229.56,185.146667 229.56,185.76 C229.56,187.226667 229.84,188.44 230.4,189.4 C230.96,190.36 231.706667,191.146667 232.64,191.76 C230.693333,192.48 229.16,193.473333 228.04,194.74 C226.92,196.006667 226.36,197.56 226.36,199.4 C226.36,200.813333 226.733333,202.173333 227.48,203.48 C228.226667,204.786667 229.38,205.94 230.94,206.94 C232.5,207.94 234.46,208.746667 236.82,209.36 C239.18,209.973333 241.986667,210.28 245.24,210.28 Z M245.24,173.08 C244.226667,173.08 243.353333,172.94 242.62,172.66 C241.886667,172.38 241.28,171.993333 240.8,171.5 C240.32,171.006667 239.966667,170.426667 239.74,169.76 C239.513333,169.093333 239.4,168.36 239.4,167.56 C239.4,165.88 239.86,164.56 240.78,163.6 C241.7,162.64 243.186667,162.16 245.24,162.16 C247.293333,162.16 248.78,162.64 249.7,163.6 C250.62,164.56 251.08,165.88 251.08,167.56 C251.08,169.186667 250.62,170.513333 249.7,171.54 C248.78,172.566667 247.293333,173.08 245.24,173.08 Z M245.48,201.76 C243.826667,201.76 242.46,201.66 241.38,201.46 C240.3,201.26 239.44,200.986667 238.8,200.64 C238.16,200.293333 237.713333,199.88 237.46,199.4 C237.206667,198.92 237.08,198.386667 237.08,197.8 C237.08,196.973333 237.326667,196.233333 237.82,195.58 C238.313333,194.926667 238.946667,194.333333 239.72,193.8 C240.866667,193.933333 242.026667,194.02 243.2,194.06 C244.373333,194.1 245.506667,194.146667 246.6,194.2 C247.693333,194.253333 248.713333,194.333333 249.66,194.44 C250.606667,194.546667 251.433333,194.72 252.14,194.96 C252.846667,195.2 253.406667,195.52 253.82,195.92 C254.233333,196.32 254.44,196.853333 254.44,197.52 C254.44,198.133333 254.306667,198.7 254.04,199.22 C253.773333,199.74 253.3,200.186667 252.62,200.56 C251.94,200.933333 251.026667,201.226667 249.88,201.44 C248.733333,201.653333 247.266667,201.76 245.48,201.76 Z M290.76,196.64 C292.173333,196.64 293.66,196.54 295.22,196.34 C296.78,196.14 298.34,195.78 299.9,195.26 C301.46,194.74 302.98,194.02 304.46,193.1 C305.94,192.18 307.32,190.986667 308.6,189.52 L308.6,189.52 L305,185.08 C304.493333,184.36 303.746667,184 302.76,184 C302.013333,184 301.3,184.173333 300.62,184.52 C299.94,184.866667 299.193333,185.253333 298.38,185.68 C297.566667,186.106667 296.64,186.493333 295.6,186.84 C294.56,187.186667 293.32,187.36 291.88,187.36 C289.186667,187.36 286.986667,186.58 285.28,185.02 C283.573333,183.46 282.52,180.946667 282.12,177.48 L282.12,177.48 L306.04,177.48 C306.6,177.48 307.06,177.413333 307.42,177.28 C307.78,177.146667 308.066667,176.906667 308.28,176.56 C308.493333,176.213333 308.64,175.746667 308.72,175.16 C308.8,174.573333 308.84,173.813333 308.84,172.88 C308.84,169.893333 308.38,167.22 307.46,164.86 C306.54,162.5 305.26,160.506667 303.62,158.88 C301.98,157.253333 300.02,156.013333 297.74,155.16 C295.46,154.306667 292.946667,153.88 290.2,153.88 C287.026667,153.88 284.18,154.426667 281.66,155.52 C279.14,156.613333 276.993333,158.093333 275.22,159.96 C273.446667,161.826667 272.086667,164 271.14,166.48 C270.193333,168.96 269.72,171.586667 269.72,174.36 C269.72,178.04 270.273333,181.266667 271.38,184.04 C272.486667,186.813333 273.993333,189.133333 275.9,191 C277.806667,192.866667 280.033333,194.273333 282.58,195.22 C285.126667,196.166667 287.853333,196.64 290.76,196.64 Z M297.72,170.28 L282.24,170.28 C282.666667,167.746667 283.546667,165.806667 284.88,164.46 C286.213333,163.113333 288.066667,162.44 290.44,162.44 C291.773333,162.44 292.906667,162.666667 293.84,163.12 C294.773333,163.573333 295.526667,164.166667 296.1,164.9 C296.673333,165.633333 297.086667,166.466667 297.34,167.4 C297.593333,168.333333 297.72,169.293333 297.72,170.28 L297.72,170.28 Z M345.96,196.64 C348.093333,196.64 350.16,196.34 352.16,195.74 C354.16,195.14 355.96,194.24 357.56,193.04 L357.56,193.04 L353.8,187.16 C353.56,186.786667 353.326667,186.513333 353.1,186.34 C352.873333,186.166667 352.573333,186.08 352.2,186.08 C351.933333,186.08 351.7,186.126667 351.5,186.22 C351.3,186.313333 351.086667,186.42 350.86,186.54 C350.633333,186.66 350.366667,186.766667 350.06,186.86 C349.753333,186.953333 349.373333,187 348.92,187 C348.04,187 347.366667,186.686667 346.9,186.06 C346.433333,185.433333 346.2,184.64 346.2,183.68 L346.2,183.68 L346.2,163.08 L356.28,163.08 L356.28,154.6 L346.2,154.6 L346.2,142.48 L339.72,142.48 C338.226667,142.48 337.32,143.12 337,144.4 L337,144.4 L334.56,154.52 L327.96,155.8 L327.96,160.64 C327.96,161.44 328.186667,162.046667 328.64,162.46 C329.093333,162.873333 329.64,163.08 330.28,163.08 L330.28,163.08 L333.8,163.08 L333.8,184.52 C333.8,186.36 334.066667,188.026667 334.6,189.52 C335.133333,191.013333 335.913333,192.286667 336.94,193.34 C337.966667,194.393333 339.233333,195.206667 340.74,195.78 C342.246667,196.353333 343.986667,196.64 345.96,196.64 Z M375.8,196 L375.8,166.44 C376.893333,165.453333 378.04,164.666667 379.24,164.08 C380.44,163.493333 381.72,163.2 383.08,163.2 C384.893333,163.2 386.266667,163.766667 387.2,164.9 C388.133333,166.033333 388.6,167.613333 388.6,169.64 L388.6,169.64 L388.6,196 L401,196 L401,169.64 C401,167.373333 400.693333,165.273333 400.08,163.34 C399.466667,161.406667 398.56,159.74 397.36,158.34 C396.16,156.94 394.686667,155.846667 392.94,155.06 C391.193333,154.273333 389.186667,153.88 386.92,153.88 C384.493333,153.88 382.406667,154.273333 380.66,155.06 C378.913333,155.846667 377.293333,156.88 375.8,158.16 L375.8,158.16 L375.8,136.12 L363.4,136.12 L363.4,196 L375.8,196 Z M428.12,196.64 C429.533333,196.64 431.02,196.54 432.58,196.34 C434.14,196.14 435.7,195.78 437.26,195.26 C438.82,194.74 440.34,194.02 441.82,193.1 C443.3,192.18 444.68,190.986667 445.96,189.52 L445.96,189.52 L442.36,185.08 C441.853333,184.36 441.106667,184 440.12,184 C439.373333,184 438.66,184.173333 437.98,184.52 C437.3,184.866667 436.553333,185.253333 435.74,185.68 C434.926667,186.106667 434,186.493333 432.96,186.84 C431.92,187.186667 430.68,187.36 429.24,187.36 C426.546667,187.36 424.346667,186.58 422.64,185.02 C420.933333,183.46 419.88,180.946667 419.48,177.48 L419.48,177.48 L443.4,177.48 C443.96,177.48 444.42,177.413333 444.78,177.28 C445.14,177.146667 445.426667,176.906667 445.64,176.56 C445.853333,176.213333 446,175.746667 446.08,175.16 C446.16,174.573333 446.2,173.813333 446.2,172.88 C446.2,169.893333 445.74,167.22 444.82,164.86 C443.9,162.5 442.62,160.506667 440.98,158.88 C439.34,157.253333 437.38,156.013333 435.1,155.16 C432.82,154.306667 430.306667,153.88 427.56,153.88 C424.386667,153.88 421.54,154.426667 419.02,155.52 C416.5,156.613333 414.353333,158.093333 412.58,159.96 C410.806667,161.826667 409.446667,164 408.5,166.48 C407.553333,168.96 407.08,171.586667 407.08,174.36 C407.08,178.04 407.633333,181.266667 408.74,184.04 C409.846667,186.813333 411.353333,189.133333 413.26,191 C415.166667,192.866667 417.393333,194.273333 419.94,195.22 C422.486667,196.166667 425.213333,196.64 428.12,196.64 Z M435.08,170.28 L419.6,170.28 C420.026667,167.746667 420.906667,165.806667 422.24,164.46 C423.573333,163.113333 425.426667,162.44 427.8,162.44 C429.133333,162.44 430.266667,162.666667 431.2,163.12 C432.133333,163.573333 432.886667,164.166667 433.46,164.9 C434.033333,165.633333 434.446667,166.466667 434.7,167.4 C434.953333,168.333333 435.08,169.293333 435.08,170.28 L435.08,170.28 Z" id="Westandtochangethe" fill="#FFFFFF" fill-rule="nonzero"></path>
            <g id="realestateindustry." fill-rule="nonzero">
                <use fill="#FFDA00" xlink:href="#path-2"></use>
                <use fill="url(#linearGradient-1)" xlink:href="#path-2"></use>
            </g>
            <polyline id="Path-3" stroke="url(#linearGradient-3)" stroke-width="5" transform="translate(108.845722, 89.000000) scale(-1, 1) translate(-108.845722, -89.000000) " points="0 5.68445283e-14 217.691443 5.68445283e-14 217.691443 178"></polyline>
        </g>
    </g>
</svg>