<?xml version="1.0" encoding="UTF-8"?>
<svg width="48px" height="48px" viewBox="0 0 48 48" version="1.1" xmlns="http://www.w3.org/2000/svg" xmlns:xlink="http://www.w3.org/1999/xlink">
    <title>icon-notifications</title>
    <g id="Homepage" stroke="none" stroke-width="1" fill="none" fill-rule="evenodd">
        <g id="Home" transform="translate(-926.000000, -2294.000000)">
            <g id="icon-notifications" transform="translate(926.000000, 2294.000000)">
                <g id="notifications_active_black_24dp">
                    <polygon id="Path" points="0 0 48 0 48 48 0 48"></polygon>
                    <path d="M24,44 C26.2,44 28,42.2 28,40 L20,40 C20,42.2 21.8,44 24,44 Z M36,32 L36,22 C36,15.86 32.74,10.72 27,9.36 L27,8 C27,6.34 25.66,5 24,5 C22.34,5 21,6.34 21,8 L21,9.36 C15.28,10.72 12,15.84 12,22 L12,32 L8,36 L8,38 L40,38 L40,36 L36,32 Z M32,34 L16,34 L16,22 C16,17.04 19.02,13 24,13 C28.98,13 32,17.04 32,22 L32,34 Z" id="Shape" fill="#000000" fill-rule="nonzero"></path>
                </g>
                <path d="M15.16,8.16 L12.3,5.3 C7.5,8.96 4.34,14.6 4.06,21 L8.06,21 C8.36,15.7 11.08,11.06 15.16,8.16 L15.16,8.16 Z" id="Path" fill="#FFDA00"></path>
                <path d="M39.94,21 L43.94,21 C43.64,14.6 40.48,8.96 35.7,5.3 L32.86,8.16 C36.9,11.06 39.64,15.7 39.94,21 Z" id="Path" fill="#FFDA00"></path>
            </g>
        </g>
    </g>
</svg>