<?xml version="1.0" encoding="UTF-8"?>
<svg width="125px" height="45px" viewBox="0 0 125 45" version="1.1" xmlns="http://www.w3.org/2000/svg" xmlns:xlink="http://www.w3.org/1999/xlink">
    <title>Group</title>
    <defs>
        <path d="M27.3371559,4.53914625 L51.6314148,22.8038859 L54.666159,20.5469946 L27.3371559,0 L0,20.5469946 L3.03474418,22.8038859 L27.3371559,4.53914625 Z M1.06225638,45 L15.8503998,45 L15.8503998,27.5215352 L1.06225638,27.5215352 L1.06225638,45 Z M19.9804909,45 L34.7686343,45 L34.7686343,21.3289625 L19.9804909,21.3289625 L19.9804909,45 Z M38.8992051,45 L53.6873485,45 L53.6873485,33.1819487 L38.8992051,33.1819487 L38.8992051,45 Z" id="path-1"></path>
        <linearGradient x1="2.12424006%" y1="84.1392616%" x2="95.0770688%" y2="40.0555966%" id="linearGradient-3">
            <stop stop-color="#FCDF1E" offset="0%"></stop>
            <stop stop-color="#F4B829" offset="100%"></stop>
        </linearGradient>
    </defs>
    <g id="Symbols" stroke="none" stroke-width="1" fill="none" fill-rule="evenodd">
        <g id="primary-header" transform="translate(-31.000000, -15.000000)">
            <g id="Group" transform="translate(31.000000, 15.000000)">
                <path d="M66.4972492,20.9662136 L63.7809421,20.9662136 C63.7200362,20.6637634 63.6898231,20.3459992 63.6898231,20.011964 C63.6898231,19.6989855 63.7200362,19.3912711 63.7809421,19.0888208 L71.4445344,19.0888208 C71.5049607,19.3912711 71.5356534,19.6989855 71.5356534,20.011964 C71.5356534,20.3459992 71.5049607,20.6637634 71.4445344,20.9662136 L68.7277478,20.9662136 L68.7277478,29.9770291 C68.5459892,29.9971286 68.3642307,30.0153139 68.1819926,30.0301493 C67.9997545,30.0449847 67.8227917,30.0526417 67.6506246,30.0526417 C67.4784575,30.0526417 67.2938216,30.047856 67.0967166,30.0373277 C66.8996117,30.0272779 66.6996294,30.007657 66.4972492,29.9770291 L66.4972492,20.9662136" id="Fill-30" fill="#0A0B09"></path>
                <path d="M71.6114261,22.1477795 C71.7629715,22.1171516 71.9073233,22.0946593 72.0440019,22.0798239 C72.1806805,22.06451 72.329828,22.0563744 72.491924,22.0563744 C72.6434694,22.0563744 72.7926169,22.0664242 72.9398461,22.0870023 C73.0861161,22.1075804 73.2299883,22.131987 73.3719422,22.1626149 C73.4021554,22.2133423 73.4299707,22.2860835 73.4553881,22.3822741 C73.4808055,22.4789433 73.5033455,22.5789625 73.5234876,22.6852029 C73.5436297,22.7909648 73.561374,22.8976838 73.5771999,23.0029671 C73.5920667,23.1096861 73.6045356,23.1972626 73.6150862,23.2685681 C73.8376086,22.9555896 74.1104862,22.6751531 74.4346782,22.4272588 C74.7583906,22.1803216 75.1626715,22.0563744 75.6484799,22.0563744 C75.7496701,22.0563744 75.865727,22.0616386 75.9976098,22.0721669 C76.1290131,22.0822167 76.2249279,22.0975306 76.2858338,22.1171516 C76.3059759,22.2181279 76.3208427,22.3348966 76.3313933,22.4655436 C76.3409848,22.5966692 76.3467397,22.733059 76.3467397,22.8742343 C76.3467397,23.0460375 76.3390665,23.2331547 76.3237201,23.4351072 C76.3088533,23.6365812 76.2805585,23.8284839 76.2402742,24.0108155 C76.1290131,23.9902374 76.0048034,23.979709 75.8686044,23.979709 C75.7319258,23.979709 75.6484799,23.979709 75.6182668,23.979709 C75.4460997,23.979709 75.2537906,23.9974158 75.0413393,24.0333078 C74.828888,24.0687213 74.6265078,24.1620406 74.4346782,24.3137443 C74.2418894,24.4649694 74.0826709,24.6922856 73.9565429,24.9947358 C73.8294558,25.2976646 73.7666316,25.7211907 73.7666316,26.2672282 L73.7666316,29.9918645 C73.5843935,30.0224923 73.4021554,30.0421133 73.2203969,30.0526417 C73.0381587,30.0626914 72.8611959,30.067477 72.6890289,30.067477 C72.5168618,30.067477 72.3422969,30.0626914 72.1653341,30.0526417 C71.9883713,30.0421133 71.8037353,30.0224923 71.6114261,29.9918645 L71.6114261,22.1477795" id="Fill-31" fill="#0A0B09"></path>
                <path d="M77.5758878,22.1477795 C77.9394049,22.0870023 78.2986058,22.0563744 78.653011,22.0563744 C79.0069366,22.0563744 79.3661375,22.0870023 79.7306137,22.1477795 L79.7306137,26.2968989 C79.7306137,26.7108538 79.7632247,27.0520674 79.8294059,27.3195827 C79.8951076,27.5866194 79.9958181,27.7991003 80.1329763,27.955111 C80.2691753,28.1120789 80.4384649,28.2231049 80.6408451,28.2886677 C80.8432253,28.3542305 81.081094,28.3867726 81.3539716,28.3867726 C81.7285189,28.3867726 82.0421603,28.3513591 82.2948958,28.2814893 L82.2948958,22.1477795 C82.659372,22.0870023 83.0132976,22.0563744 83.3576317,22.0563744 C83.7115573,22.0563744 84.0712378,22.0870023 84.4352345,22.1477795 L84.4352345,29.6741003 C84.1110425,29.7851263 83.6837421,29.8937596 83.1523741,30 C82.6214857,30.1057619 82.0675777,30.1588821 81.4911298,30.1588821 C80.9746286,30.1588821 80.4792287,30.1177259 80.0034913,30.0373277 C79.5282335,29.9569296 79.1110041,29.7851263 78.7518032,29.5223966 C78.3926023,29.2596669 78.1067762,28.8768185 77.8943249,28.3719372 C77.6818736,27.8670559 77.5758878,27.1961141 77.5758878,26.3576761 L77.5758878,22.1477795" id="Fill-32" fill="#0A0B09"></path>
                <path d="M86.3923759,19.0888208 C86.7669232,19.0280436 87.1361952,18.9978943 87.5006714,18.9978943 C87.8651476,18.9978943 88.2392153,19.0280436 88.6238337,19.0888208 L88.6238337,23.3590161 L92.2810649,23.3590161 L92.2810649,19.0888208 C92.6551326,19.0280436 93.0244046,18.9978943 93.3888808,18.9978943 C93.7528774,18.9978943 94.1269452,19.0280436 94.5120431,19.0888208 L94.5120431,29.9770291 C94.1269452,30.0373277 93.7581528,30.067477 93.4037476,30.067477 C93.0296799,30.067477 92.6551326,30.0373277 92.2810649,29.9770291 L92.2810649,25.2670368 L88.6238337,25.2670368 L88.6238337,29.9770291 C88.2392153,30.0373277 87.8694638,30.067477 87.5155382,30.067477 C87.1414705,30.067477 86.7669232,30.0373277 86.3923759,29.9770291 L86.3923759,19.0888208" id="Fill-33" fill="#0A0B09"></path>
                <path d="M99.6564332,28.5231623 C100.22329,28.5231623 100.630448,28.3140314 100.877908,27.8943338 C101.125848,27.4755934 101.249578,26.8726072 101.249578,26.0848966 C101.249578,25.2976646 101.125848,24.6937213 100.877908,24.2749809 C100.630448,23.8562404 100.22329,23.6471095 99.6564332,23.6471095 C99.1001274,23.6471095 98.6982444,23.8562404 98.4498251,24.2749809 C98.2018853,24.6937213 98.0781552,25.2976646 98.0781552,26.0848966 C98.0781552,26.8726072 98.2018853,27.4755934 98.4498251,27.8943338 C98.6982444,28.3140314 99.1001274,28.5231623 99.6564332,28.5231623 Z M99.6564332,30.1588821 C99.0195589,30.1588821 98.4651714,30.055513 97.9947093,29.8487749 C97.5247268,29.6410796 97.1348332,29.3534648 96.8259875,28.9849732 C96.5176215,28.6169602 96.2855077,28.1848201 96.1282074,27.6904671 C95.9713867,27.1961141 95.8932161,26.6606049 95.8932161,26.0848966 C95.8932161,25.5101455 95.9713867,24.9698507 96.1282074,24.4649694 C96.2855077,23.9600881 96.5176215,23.5236409 96.8259875,23.1546708 C97.1348332,22.7861792 97.5247268,22.495693 97.9947093,22.2841692 C98.4651714,22.0721669 99.0195589,21.9654479 99.6564332,21.9654479 C100.294267,21.9654479 100.850572,22.0721669 101.32583,22.2841692 C101.801568,22.495693 102.195777,22.7861792 102.509419,23.1546708 C102.82354,23.5236409 103.056613,23.9600881 103.208158,24.4649694 C103.360183,24.9698507 103.435956,25.5101455 103.435956,26.0848966 C103.435956,26.6606049 103.360183,27.1961141 103.208158,27.6904671 C103.056613,28.1848201 102.82354,28.6169602 102.509419,28.9849732 C102.195777,29.3534648 101.801568,29.6410796 101.32583,29.8487749 C100.850572,30.055513 100.294267,30.1588821 99.6564332,30.1588821 L99.6564332,30.1588821 Z" id="Fill-34" fill="#0A0B09"></path>
                <path d="M104.831516,22.1477795 C104.97299,22.1171516 105.114465,22.0946593 105.256898,22.0798239 C105.398373,22.06451 105.554714,22.0563744 105.726881,22.0563744 C105.898568,22.0563744 106.050114,22.06451 106.182476,22.0798239 C106.3134,22.0946593 106.450078,22.1171516 106.591553,22.1477795 C106.622245,22.1985069 106.649581,22.2712481 106.674998,22.3674387 C106.700416,22.4626723 106.723435,22.5636485 106.743098,22.6703675 C106.76372,22.7761294 106.781464,22.8794985 106.79681,22.9804747 C106.811677,23.081451 106.824626,23.1675919 106.835176,23.2374617 C106.915745,23.0862366 107.021251,22.9350115 107.153613,22.7833078 C107.284537,22.6320827 107.441837,22.495693 107.623596,22.3750957 C107.806313,22.2535413 108.010612,22.1554364 108.23841,22.0798239 C108.465728,22.0037328 108.721341,21.9654479 109.005248,21.9654479 C110.228642,21.9654479 111.013704,22.4301302 111.357559,23.3590161 C111.55946,22.9852603 111.845286,22.6598392 112.214558,22.3822741 C112.58335,22.104709 113.051894,21.9654479 113.618271,21.9654479 C114.50836,21.9654479 115.163938,22.2104709 115.583565,22.7000383 C116.003192,23.1900842 116.213725,23.9548239 116.213725,24.9947358 L116.213725,29.9770291 C115.849728,30.0373277 115.490048,30.067477 115.135643,30.067477 C114.781717,30.067477 114.422996,30.0373277 114.05852,29.9770291 L114.05852,25.5546516 C114.05852,25.0100498 113.99042,24.5913093 113.853741,24.2974732 C113.716583,24.0050727 113.441308,23.8591118 113.026476,23.8591118 C112.854309,23.8591118 112.685499,23.8844755 112.517648,23.9352029 C112.351236,23.9854518 112.199211,24.0778139 112.062533,24.2142037 C111.925854,24.351072 111.814593,24.5424962 111.729229,24.7903905 C111.642905,25.0378063 111.599744,25.3584418 111.599744,25.7518185 L111.599744,29.9770291 C111.235747,30.0373277 110.877026,30.067477 110.522621,30.067477 C110.168695,30.067477 109.809014,30.0373277 109.444538,29.9770291 L109.444538,25.5546516 C109.444538,25.0100498 109.376439,24.5913093 109.24024,24.2974732 C109.103561,24.0050727 108.827327,23.8591118 108.413454,23.8591118 C108.240808,23.8591118 108.06864,23.8844755 107.897433,23.9352029 C107.724786,23.9854518 107.570363,24.0835567 107.434644,24.2295176 C107.297965,24.3759571 107.189102,24.580781 107.107574,24.8435107 C107.027006,25.1062404 106.986722,25.4493683 106.986722,25.8724158 L106.986722,29.9770291 C106.622245,30.0373277 106.262565,30.067477 105.908639,30.067477 C105.554714,30.067477 105.195992,30.0373277 104.831516,29.9770291 L104.831516,22.1477795" id="Fill-35" fill="#0A0B09"></path>
                <path d="M122.966606,25.2220521 C122.946944,24.7367917 122.812663,24.3462864 122.564723,24.0481432 C122.316304,23.7509571 121.969572,23.6011677 121.525007,23.6011677 C121.019056,23.6011677 120.633958,23.742343 120.371631,24.0256508 C120.108825,24.3080015 119.951045,24.707121 119.90069,25.2220521 L122.966606,25.2220521 Z M119.885823,26.7213821 C119.926107,27.3267611 120.138559,27.7660796 120.523656,28.0383806 C120.907795,28.31116 121.413266,28.4475498 122.041029,28.4475498 C122.384883,28.4475498 122.735931,28.4150077 123.095612,28.3494449 C123.454333,28.282925 123.796269,28.1896057 124.120461,28.0690084 C124.230763,28.2709609 124.327158,28.5131126 124.408685,28.7954632 C124.489254,29.0787711 124.534334,29.3812213 124.544884,29.7047282 C123.755985,30.007657 122.865416,30.1588821 121.874137,30.1588821 C121.145664,30.1588821 120.520779,30.0579058 119.999962,29.8564319 C119.478185,29.6544793 119.053762,29.3740429 118.725254,29.0151225 C118.396266,28.6571593 118.152643,28.2307619 117.996302,27.7354518 C117.839001,27.2410988 117.76131,26.700804 117.76131,26.1155245 C117.76131,25.5398162 117.841879,24.9995214 118.003975,24.4946401 C118.166071,23.9902374 118.406817,23.5509188 118.725254,23.1771631 C119.043691,22.8038859 119.437901,22.5086141 119.909322,22.2918262 C120.379305,22.0740812 120.928417,21.9654479 121.5557,21.9654479 C122.101934,21.9654479 122.587263,22.0616386 123.012166,22.2535413 C123.437548,22.4449655 123.799147,22.7076953 124.096962,23.0412519 C124.395737,23.37433 124.620657,23.7705781 124.772202,24.2295176 C124.924227,24.6894142 125,25.181853 125,25.7063553 C125,25.8987366 124.992327,26.087768 124.97746,26.2744066 C124.962593,26.4615237 124.944849,26.6098775 124.924227,26.7213821 L119.885823,26.7213821 L119.885823,26.7213821 Z" id="Fill-36" fill="#0A0B09"></path>
                <path d="M75.039421,33.3968224 L75.9952119,33.3968224 L71.7303605,44.3616003 L70.8047827,44.3616003 L66.5092385,33.3968224 L67.5110686,33.3968224 L69.9089385,39.5463247 C70.3640542,40.7116194 70.8349959,41.9391271 71.2752448,43.1044219 L71.3054579,43.1044219 C71.7452273,41.9238132 72.2161689,40.6967841 72.6712846,39.5152182 L75.039421,33.3968224" id="Fill-37" fill="#0A0B09"></path>
                <path d="M84.3110248,37.5320636 C83.9014686,36.5318721 83.4919125,35.5178025 83.0972231,34.517611 L83.0670099,34.517611 C82.6876669,35.4718606 82.3083239,36.4112749 81.8532082,37.5157925 L80.7300459,40.2426302 L85.4193203,40.2426302 L84.3110248,37.5320636 Z M82.6421074,33.3968224 L83.5221256,33.3968224 L88.1207606,44.3616003 L87.1194101,44.3616003 L85.7684502,41.0901608 L80.3804365,41.0901608 L79.0299561,44.3616003 L78.0736856,44.3616003 L82.6421074,33.3968224 L82.6421074,33.3968224 Z" id="Fill-38" fill="#0A0B09"></path>
                <polyline id="Fill-39" fill="#0A0B09" points="92.6882232 33.3968224 93.613801 33.3968224 93.613801 43.5140697 99.0627206 43.5140697 99.0627206 44.3616003 92.6882232 44.3616003 92.6882232 33.3968224"></polyline>
                <path d="M112.417417,39.0610643 C112.417417,40.8183384 112.265872,41.9999043 111.642905,42.9378828 C110.959992,43.9533882 109.776403,44.5281394 108.153045,44.5281394 C106.634714,44.5281394 105.557591,44.0290008 104.858852,43.1503637 C104.100166,42.1961141 103.90354,40.9087864 103.90354,39.1515123 L103.90354,33.3968224 L104.828639,33.3968224 L104.828639,39.0758997 C104.828639,40.7274119 105.011356,41.8324081 105.587325,42.5746554 C106.058746,43.1800345 106.878338,43.6652948 108.198125,43.6652948 C109.548606,43.6652948 110.44397,43.1503637 110.930258,42.3784456 C111.400241,41.6361983 111.522053,40.6058576 111.522053,39.1070061 L111.522053,33.3968224 L112.417417,33.3968224 L112.417417,39.0610643" id="Fill-40" fill="#0A0B09"></path>
                <polyline id="Fill-41" fill="#0A0B09" points="118.047136 33.3968224 124.132451 33.3968224 124.132451 34.2453101 118.972235 34.2453101 118.972235 38.2432044 123.541616 38.2432044 123.541616 39.0916922 118.972235 39.0916922 118.972235 43.5140697 124.269129 43.5140697 124.269129 44.3616003 118.047136 44.3616003 118.047136 33.3968224"></polyline>
                <g id="Group-44">
                    <mask id="mask-2" fill="white">
                        <use xlink:href="#path-1"></use>
                    </mask>
                    <g id="Clip-43"></g>
                    <path d="M27.3371559,4.53914625 L51.6314148,22.8038859 L54.666159,20.5469946 L27.3371559,0 L0,20.5469946 L3.03474418,22.8038859 L27.3371559,4.53914625 Z M1.06225638,45 L15.8503998,45 L15.8503998,27.5215352 L1.06225638,27.5215352 L1.06225638,45 Z M19.9804909,45 L34.7686343,45 L34.7686343,21.3289625 L19.9804909,21.3289625 L19.9804909,45 Z M38.8992051,45 L53.6873485,45 L53.6873485,33.1819487 L38.8992051,33.1819487 L38.8992051,45 Z" id="Fill-42" fill="url(#linearGradient-3)" mask="url(#mask-2)"></path>
                </g>
            </g>
        </g>
    </g>
</svg>