<?xml version="1.0" encoding="UTF-8"?>
<svg width="30px" height="30px" viewBox="0 0 30 30" version="1.1" xmlns="http://www.w3.org/2000/svg" xmlns:xlink="http://www.w3.org/1999/xlink">
    <title>Group 3</title>
    <g id="Design" stroke="none" stroke-width="1" fill="none" fill-rule="evenodd">
        <g id="Dashboard" transform="translate(-256.000000, -242.000000)">
            <g id="Group" transform="translate(240.000000, 232.000000)">
                <g id="Group-3" transform="translate(17.000000, 11.000000)">
                    <circle id="Oval" stroke="#E6ECF1" stroke-width="2" fill="#FFFFFF" cx="14" cy="14" r="14"></circle>
                    <g id="local_offer_black_24dp" transform="translate(4.800000, 4.800000)">
                        <polygon id="Path" points="0 0 19.2 0 19.2 19.2 0 19.2"></polygon>
                        <path d="M17.128,9.264 L9.928,2.064 C9.64,1.776 9.24,1.6 8.8,1.6 L3.2,1.6 C2.32,1.6 1.6,2.32 1.6,3.2 L1.6,8.8 C1.6,9.24 1.776,9.64 2.072,9.936 L9.272,17.136 C9.56,17.424 9.96,17.6 10.4,17.6 C10.84,17.6 11.24,17.424 11.528,17.128 L17.128,11.528 C17.424,11.24 17.6,10.84 17.6,10.4 C17.6,9.96 17.416,9.552 17.128,9.264 Z M10.4,16.008 L3.2,8.8 L3.2,3.2 L8.8,3.2 L8.8,3.192 L16,10.392 L10.4,16.008 L10.4,16.008 Z" id="Shape" fill="#222325" fill-rule="nonzero"></path>
                        <circle id="Oval" fill="#000000" fill-rule="nonzero" cx="5.2" cy="5.2" r="1.2"></circle>
                    </g>
                </g>
            </g>
        </g>
    </g>
</svg>