<?xml version="1.0" encoding="UTF-8"?>
<svg width="55px" height="45px" viewBox="0 0 55 45" version="1.1" xmlns="http://www.w3.org/2000/svg" xmlns:xlink="http://www.w3.org/1999/xlink">
    <title>Group</title>
    <defs>
        <path d="M27.3371559,4.53914625 L51.6314148,22.8038859 L54.666159,20.5469946 L27.3371559,0 L0,20.5469946 L3.03474418,22.8038859 L27.3371559,4.53914625 Z M1.06225638,45 L15.8503998,45 L15.8503998,27.5215352 L1.06225638,27.5215352 L1.06225638,45 Z M19.9804909,45 L34.7686343,45 L34.7686343,21.3289625 L19.9804909,21.3289625 L19.9804909,45 Z M38.8992051,45 L53.6873485,45 L53.6873485,33.1819487 L38.8992051,33.1819487 L38.8992051,45 Z" id="path-1"></path>
        <linearGradient x1="2.12424006%" y1="84.1392616%" x2="95.0770688%" y2="40.0555966%" id="linearGradient-3">
            <stop stop-color="#FCDF1E" offset="0%"></stop>
            <stop stop-color="#F4B829" offset="100%"></stop>
        </linearGradient>
    </defs>
    <g id="Symbols" stroke="none" stroke-width="1" fill="none" fill-rule="evenodd">
        <g id="Group-44">
            <mask id="mask-2" fill="white">
                <use xlink:href="#path-1"></use>
            </mask>
            <g id="Clip-43"></g>
            <path d="M27.3371559,4.53914625 L51.6314148,22.8038859 L54.666159,20.5469946 L27.3371559,0 L0,20.5469946 L3.03474418,22.8038859 L27.3371559,4.53914625 Z M1.06225638,45 L15.8503998,45 L15.8503998,27.5215352 L1.06225638,27.5215352 L1.06225638,45 Z M19.9804909,45 L34.7686343,45 L34.7686343,21.3289625 L19.9804909,21.3289625 L19.9804909,45 Z M38.8992051,45 L53.6873485,45 L53.6873485,33.1819487 L38.8992051,33.1819487 L38.8992051,45 Z" id="Fill-42" fill="url(#linearGradient-3)" mask="url(#mask-2)"></path>
        </g>
    </g>
</svg>